<svg xmlns="http://www.w3.org/2000/svg" version="1.1" xmlns:xlink="http://www.w3.org/1999/xlink" xmlns:svgjs="http://svgjs.dev/svgjs" width="500" height="107" viewBox="0 0 1000 214"><g transform="matrix(1,0,0,1,-13.046644725901956,-12.754517539238734)"><svg viewBox="0 0 401 86" data-background-color="#ffffff" preserveAspectRatio="xMidYMid meet" height="214" width="1000" xmlns="http://www.w3.org/2000/svg" xmlns:xlink="http://www.w3.org/1999/xlink"><defs></defs><g id="tight-bounds" transform="matrix(1,0,0,1,5.231704535086692,5.125647235395007)"><svg viewBox="0 0 395.52 75.74869991595627" height="75.74869991595627" width="395.52"><g><svg viewBox="0 0 541.3962492979122 103.6864432233308" height="75.74869991595627" width="395.52"><g><rect width="6.765955466200706" height="75.40150176515732" x="121.39836852752113" y="14.142470729086739" fill="#ec9131" opacity="1" stroke-width="0" stroke="transparent" fill-opacity="1" class="rect-o-0" data-fill-palette-color="primary" rx="1%" id="o-0" data-palette-color="#ec9131"></rect></g><g transform="matrix(1,0,0,1,145.87624929791218,14.33003665387568)"><svg viewBox="0 0 395.52000000000004 75.02636991557944" height="75.02636991557944" width="395.52000000000004"><g><svg viewBox="0 0 395.52000000000004 75.02636991557944" height="75.02636991557944" width="395.52000000000004"><g><svg viewBox="0 0 395.52000000000004 75.02636991557944" height="75.02636991557944" width="395.52000000000004"><g transform="matrix(1,0,0,1,0,0)"><svg width="395.52000000000004" viewBox="3.25 -35.45000076293945 191.4600067138672 36.209999084472656" height="75.02636991557944" data-palette-color="#ec9131"><g class="undefined-text-0" data-fill-palette-color="primary" id="text-0"><path d="M17.26-28L10.25-28 10.25-13.99 17.26-13.99Q18.7-13.99 19.97-14.54 21.24-15.09 22.19-16.04 23.14-16.99 23.69-18.27 24.24-19.56 24.24-21L24.24-21Q24.24-22.44 23.69-23.72 23.14-25 22.19-25.95 21.24-26.9 19.97-27.45 18.7-28 17.26-28L17.26-28ZM10.25-7.01L10.25 0 3.25 0 3.25-35.01 17.26-35.01Q19.19-35.01 20.97-34.51 22.75-34.01 24.3-33.09 25.85-32.18 27.14-30.9 28.42-29.61 29.33-28.05 30.25-26.49 30.75-24.71 31.25-22.92 31.25-21L31.25-21Q31.25-19.19 30.8-17.48 30.35-15.77 29.5-14.23 28.66-12.7 27.44-11.4 26.22-10.11 24.71-9.16L24.71-9.16 28.59 0 21.14 0 18.09-7.06 10.25-7.01ZM70.14-17.36L70.14-17.36Q70.14-14.87 69.49-12.56 68.85-10.25 67.67-8.24 66.5-6.23 64.84-4.57 63.18-2.91 61.18-1.72 59.18-0.54 56.86 0.11 54.54 0.76 52.05 0.76L52.05 0.76Q49.56 0.76 47.25 0.11 44.94-0.54 42.93-1.72 40.92-2.91 39.26-4.57 37.6-6.23 36.41-8.24 35.23-10.25 34.58-12.56 33.93-14.87 33.93-17.36L33.93-17.36Q33.93-19.85 34.58-22.17 35.23-24.49 36.41-26.49 37.6-28.49 39.26-30.15 40.92-31.81 42.93-32.98 44.94-34.16 47.25-34.8 49.56-35.45 52.05-35.45L52.05-35.45Q54.54-35.45 56.86-34.8 59.18-34.16 61.18-32.98 63.18-31.81 64.84-30.15 66.5-28.49 67.67-26.49 68.85-24.49 69.49-22.17 70.14-19.85 70.14-17.36ZM63.18-17.36L63.18-17.36Q63.18-19.65 62.3-21.69 61.42-23.73 59.92-25.23 58.42-26.73 56.38-27.61 54.34-28.49 52.05-28.49L52.05-28.49Q49.73-28.49 47.7-27.61 45.68-26.73 44.16-25.23 42.65-23.73 41.77-21.69 40.89-19.65 40.89-17.36L40.89-17.36Q40.89-15.06 41.77-13.05 42.65-11.04 44.16-9.52 45.68-8.01 47.7-7.13 49.73-6.25 52.05-6.25L52.05-6.25Q54.34-6.25 56.38-7.13 58.42-8.01 59.92-9.52 61.42-11.04 62.3-13.05 63.18-15.06 63.18-17.36ZM102.73-10.5L102.73-10.5Q102.73-8.33 101.9-6.42 101.07-4.52 99.64-3.09 98.21-1.66 96.31-0.83 94.4 0 92.23 0L92.23 0 74.73 0 74.73-35.01 92.23-35.01Q94.4-35.01 96.31-34.18 98.21-33.35 99.64-31.92 101.07-30.49 101.9-28.59 102.73-26.68 102.73-24.51L102.73-24.51Q102.73-23.54 102.46-22.51 102.19-21.48 101.7-20.53 101.22-19.58 100.53-18.8 99.85-18.02 99.02-17.5L99.02-17.5Q99.87-17.04 100.56-16.25 101.24-15.45 101.73-14.5 102.22-13.55 102.47-12.51 102.73-11.47 102.73-10.5ZM81.73-13.99L81.73-7.01 92.23-7.01Q92.96-7.01 93.6-7.28 94.23-7.54 94.71-8.02 95.19-8.5 95.45-9.13 95.72-9.77 95.72-10.5L95.72-10.5Q95.72-11.23 95.45-11.87 95.19-12.5 94.71-12.98 94.23-13.45 93.6-13.72 92.96-13.99 92.23-13.99L92.23-13.99 81.73-13.99ZM81.73-28L81.73-21 92.23-21Q92.96-21 93.6-21.26 94.23-21.53 94.71-22.01 95.19-22.49 95.45-23.13 95.72-23.78 95.72-24.51L95.72-24.51Q95.72-25.24 95.45-25.88 95.19-26.51 94.71-26.99 94.23-27.47 93.6-27.73 92.96-28 92.23-28L92.23-28 81.73-28ZM132.02-7.01L132.02 0 108.02 0 108.02-35.01 132.02-35.01 132.02-28 115.03-28 115.03-21 126.53-21 126.53-13.99 115.03-13.99 115.03-7.01 132.02-7.01ZM150.94-28L143.94-28 143.94-13.99 150.94-13.99Q152.38-13.99 153.65-14.54 154.92-15.09 155.87-16.04 156.83-16.99 157.38-18.27 157.92-19.56 157.92-21L157.92-21Q157.92-22.44 157.38-23.72 156.83-25 155.87-25.95 154.92-26.9 153.65-27.45 152.38-28 150.94-28L150.94-28ZM143.94-7.01L143.94 0 136.93 0 136.93-35.01 150.94-35.01Q152.87-35.01 154.65-34.51 156.44-34.01 157.99-33.09 159.54-32.18 160.82-30.9 162.1-29.61 163.01-28.05 163.93-26.49 164.43-24.71 164.93-22.92 164.93-21L164.93-21Q164.93-19.19 164.48-17.48 164.03-15.77 163.19-14.23 162.34-12.7 161.12-11.4 159.9-10.11 158.39-9.16L158.39-9.16 162.27 0 154.82 0 151.77-7.06 143.94-7.01ZM184.22-28L184.22 0 177.23 0 177.23-28 166.71-28 166.71-35.01 194.71-35.01 194.71-28 184.22-28Z" fill="#ec9131" data-fill-palette-color="primary"></path></g></svg></g></svg></g></svg></g></svg></g><g><svg viewBox="0 0 103.6864432233308 103.6864432233308" height="103.6864432233308" width="103.6864432233308"><g><svg xmlns="http://www.w3.org/2000/svg" viewBox="0.007991920225322247 0.007991920225322247 47.984012603759766 47.984012603759766" x="0" y="0" height="103.6864432233308" width="103.6864432233308" class="icon-icon-0" data-fill-palette-color="accent" id="icon-0"><path d="M45.39 27a2.502 2.502 0 1 0 0-5H42v-4h3.39a2.502 2.502 0 1 0 0-5H42V8.07A1.071 1.071 0 0 0 40.93 7H36V2.61a2.502 2.502 0 1 0-5 0V7h-4V2.61a2.502 2.502 0 1 0-5 0V7h-4V2.61a2.502 2.502 0 1 0-5 0V7H8.07A1.071 1.071 0 0 0 7 8.07V13H2.61a2.502 2.502 0 1 0 0 5H7v4H2.61a2.502 2.502 0 1 0 0 5H7v4H2.61a2.502 2.502 0 1 0 0 5H7v4.93A1.071 1.071 0 0 0 8.07 42H13v3.39a2.502 2.502 0 1 0 5 0V42h4v3.39a2.502 2.502 0 1 0 5 0V42h4v3.39a2.502 2.502 0 1 0 5 0V42h4.93A1.071 1.071 0 0 0 42 40.93V36h3.39a2.502 2.502 0 1 0 0-5H42v-4ZM36 31v4.36a0.644 0.644 0 0 1-0.64 0.64H13.64a0.644 0.644 0 0 1-0.64-0.64V13.64a0.644 0.644 0 0 1 0.64-0.64h21.72a0.644 0.644 0 0 1 0.64 0.64V31Z" fill="#2ecc40" data-fill-palette-color="accent"></path></svg></g></svg></g></svg></g></svg><rect width="395.52" height="75.74869991595627" fill="none" stroke="none" visibility="hidden"></rect></g></svg></g></svg>