<svg xmlns="http://www.w3.org/2000/svg" version="1.1" xmlns:xlink="http://www.w3.org/1999/xlink" xmlns:svgjs="http://svgjs.dev/svgjs" width="494.7368421052632" height="47" viewBox="0 0 1000 95"><g transform="matrix(1,0,0,1,-0.6060467835509371,-0.5562583095916551)"><svg viewBox="0 0 396 38" data-background-color="#ffffff" preserveAspectRatio="xMidYMid meet" height="95" width="1000" xmlns="http://www.w3.org/2000/svg" xmlns:xlink="http://www.w3.org/1999/xlink"><defs></defs><g id="tight-bounds" transform="matrix(1,0,0,1,0.239994526286182,0.22250332383666205)"><svg viewBox="0 0 395.52 37.55499335232668" height="37.55499335232668" width="395.52"><g><svg viewBox="0 0 395.52 37.55499335232668" height="37.55499335232668" width="395.52"><g><svg viewBox="0 0 395.52 37.55499335232668" height="37.55499335232668" width="395.52"><g><svg viewBox="0 0 395.52 37.55499335232668" height="37.55499335232668" width="395.52"><g><svg viewBox="0 0 395.52 37.55499335232668" height="37.55499335232668" width="395.52"><g transform="matrix(1,0,0,1,0,0)"><svg width="395.52" viewBox="1.7599999904632568 -37.380001068115234 397.2699890136719 37.9697151184082" height="37.55499335232668" data-palette-color="#ff5c40"><g class="undefined-text-0" data-fill-palette-color="primary" id="text-0"><path d="M27.73-31.23L27.73-31.23Q28.39-29.54 28.39-27.39 28.39-25.24 27.72-23.49 27.05-21.73 25.78-20.46L25.78-20.46Q23.36-18.04 18.68-17.07L18.68-17.07 19.12-17.87 28.76-3.22 30.47-2.47 33.91-2.08 33.91 0 25.54 0 14.55-17.55 16.6-16.67 10.06-16.67 10.06-2.64 13.72-2.08 13.72 0 1.76 0 1.76-2.08 5.54-2.64 5.54-34.18 1.76-34.74 1.76-36.82 13.79-36.82Q25.49-36.82 27.73-31.23ZM14.04-33.86L10.06-33.86 10.06-19.31 13.67-19.31Q21.58-19.31 23.24-23.93L23.24-23.93Q23.75-25.32 23.75-26.94 23.75-28.56 23.29-29.86 22.83-31.15 21.73-32.03L21.73-32.03Q19.46-33.86 14.04-33.86L14.04-33.86ZM40.07-4.74Q37.69-7.2 36.46-10.56 35.23-13.92 35.23-17.35 35.23-20.78 35.91-23.41 36.59-26.05 37.8-28.22 39.01-30.4 40.71-32.1 42.4-33.81 44.43-34.99L44.43-34.99Q48.56-37.38 53.27-37.38 57.98-37.38 61.45-36 64.91-34.62 67.28-32.2L67.28-32.2Q72.09-27.29 72.09-19.31L72.09-19.31Q72.09-10.42 66.7-4.81L66.7-4.81Q64.21-2.22 60.9-0.83 57.59 0.56 53.5 0.56 49.41 0.56 45.93-0.85 42.45-2.27 40.07-4.74ZM43.65-29.93Q41.87-27.86 40.9-25.1 39.94-22.34 39.94-19.7 39.94-17.07 40.33-14.97 40.72-12.87 41.49-11 42.26-9.13 43.42-7.54 44.58-5.96 46.12-4.81L46.12-4.81Q49.39-2.37 53.83-2.37L53.83-2.37Q59.91-2.37 63.72-6.49L63.72-6.49Q67.45-10.55 67.45-17.07L67.45-17.07Q67.45-24.24 64.21-29L64.21-29Q60.5-34.45 53.37-34.45L53.37-34.45Q47.48-34.45 43.65-29.93L43.65-29.93ZM105.15-28.27L105.15-28.27Q105.15-26.37 104.47-24.98 103.8-23.58 102.8-22.58L102.8-22.58Q101.02-20.85 98.36-19.85L98.36-19.85Q102.66-19.02 104.66-17.29L104.66-17.29Q107.39-14.89 107.39-10.16L107.39-10.16Q107.39-5.91 104.12-3.1L104.12-3.1Q100.53 0 94.06 0L94.06 0 77.12 0 77.12-2.08 80.83-2.64 80.83-34.18 77.12-34.74 77.12-36.82 93.4-36.82Q99.16-36.82 102.24-34.47L102.24-34.47Q105.15-32.28 105.15-28.27ZM93.53-18.04L85.42-18.04 85.42-2.93 92.33-2.93Q100.43-2.93 102.14-7.35L102.14-7.35Q102.68-8.74 102.68-10.39 102.68-12.04 102.11-13.42 101.53-14.79 100.39-15.82L100.39-15.82Q97.9-18.04 93.53-18.04L93.53-18.04ZM92.84-33.86L85.42-33.86 85.42-20.7 92.38-20.7Q97.55-20.7 99.6-24.22L99.6-24.22Q100.39-25.54 100.39-27.59L100.39-27.59Q100.39-30.86 98.58-32.36 96.77-33.86 92.84-33.86L92.84-33.86ZM128.46-15.09L127.73-17.65 118.74-17.65 118.74-2.93 132.34-2.93 134.1-7.25 135.95-7.25 135.15 0 110.44 0 110.44-2.08 114.15-2.64 114.15-34.18 110.44-34.74 110.44-36.82 134.07-36.82 134.64-29.57 132.49-29.57 131.17-33.86 118.74-33.86 118.74-20.58 127.73-20.58 128.46-23.17 130.19-23.17 130.19-15.09 128.46-15.09ZM165.37-31.23L165.37-31.23Q166.03-29.54 166.03-27.39 166.03-25.24 165.36-23.49 164.69-21.73 163.42-20.46L163.42-20.46Q161-18.04 156.31-17.07L156.31-17.07 156.75-17.87 166.4-3.22 168.11-2.47 171.55-2.08 171.55 0 163.17 0 152.19-17.55 154.24-16.67 147.7-16.67 147.7-2.64 151.36-2.08 151.36 0 139.39 0 139.39-2.08 143.18-2.64 143.18-34.18 139.39-34.74 139.39-36.82 151.43-36.82Q163.12-36.82 165.37-31.23ZM151.67-33.86L147.7-33.86 147.7-19.31 151.31-19.31Q159.22-19.31 160.88-23.93L160.88-23.93Q161.39-25.32 161.39-26.94 161.39-28.56 160.93-29.86 160.46-31.15 159.37-32.03L159.37-32.03Q157.09-33.86 151.67-33.86L151.67-33.86ZM174.21-36.82L205.31-36.82 205.9-28.98 203.7-28.98 202.45-33.86 192.03-33.86 192.03-2.64 197.4-2.08 197.4 0 182.14 0 182.14-2.08 187.46-2.64 187.46-33.86 177.09-33.86 175.77-28.98 173.62-28.98 174.21-36.82Z" fill="#ff5c40" data-fill-palette-color="primary"></path><path d="M227.82-37.38L227.82-37.38Q232.78-37.38 236.91-36.13L236.91-36.13Q238.71-35.57 239.93-34.89L239.93-34.89 239.37-28.37 237.76-28.37Q237.76-31.08 235.1-32.71L235.1-32.71Q232.27-34.45 227.31-34.45L227.31-34.45Q220.89-34.45 216.69-30.13L216.69-30.13Q212.52-25.78 212.52-19.26L212.52-19.26Q212.52-12.35 216.37-7.54L216.37-7.54Q218.99-4.3 222.99-3.03L222.99-3.03Q225.04-2.37 227.65-2.37 230.27-2.37 232.29-2.67 234.32-2.98 235.61-3.66L235.61-3.66Q238.15-5 238.15-8.2L238.15-8.2 239.76-8.2 240.1-1.9Q235.86 0.56 227.58 0.56L227.58 0.56Q218.45 0.56 213-4.74L213-4.74Q207.8-9.79 207.8-17.77L207.8-17.77Q207.8-26.61 213.96-32.18L213.96-32.18Q219.65-37.38 227.82-37.38ZM271.18-31.23L271.18-31.23Q271.84-29.54 271.84-27.39 271.84-25.24 271.17-23.49 270.5-21.73 269.23-20.46L269.23-20.46Q266.81-18.04 262.12-17.07L262.12-17.07 262.56-17.87 272.21-3.22 273.92-2.47 277.36-2.08 277.36 0 268.98 0 258-17.55 260.05-16.67 253.5-16.67 253.5-2.64 257.17-2.08 257.17 0 245.2 0 245.2-2.08 248.99-2.64 248.99-34.18 245.2-34.74 245.2-36.82 257.24-36.82Q268.93-36.82 271.18-31.23ZM257.48-33.86L253.5-33.86 253.5-19.31 257.12-19.31Q265.03-19.31 266.69-23.93L266.69-23.93Q267.2-25.32 267.2-26.94 267.2-28.56 266.74-29.86 266.27-31.15 265.17-32.03L265.17-32.03Q262.9-33.86 257.48-33.86L257.48-33.86ZM279.14-34.74L279.14-36.82 291.1-36.82 291.1-34.74 287.41-34.18 287.41-2.64 291.1-2.08 291.1 0 279.14 0 279.14-2.08 282.9-2.64 282.9-34.18 279.14-34.74ZM307.85-2.34L307.85-2.34Q309.65-2.34 311.13-2.7 312.61-3.05 313.68-3.81L313.68-3.81Q315.98-5.4 315.98-8.45L315.98-8.45Q315.98-11.04 314.29-12.7L314.29-12.7Q312.51-14.4 308.52-16.15 304.53-17.9 302.44-19.27 300.35-20.65 299.15-22.07L299.15-22.07Q296.98-24.56 296.98-28.1L296.98-28.1Q296.98-32.2 300.52-34.86L300.52-34.86Q303.82-37.38 308.5-37.38L308.5-37.38Q312.19-37.38 315.88-36.04L315.88-36.04Q317.42-35.42 318.66-34.69L318.66-34.69 317.81-28.17 315.76-28.17Q315.76-31.54 313.92-33.07 312.09-34.59 308.63-34.59L308.63-34.59Q303.84-34.59 302.08-31.47L302.08-31.47Q301.52-30.44 301.52-29.17 301.52-27.91 301.89-26.89 302.25-25.88 303.3-24.9L303.3-24.9Q305.36-22.92 311.02-20.56L311.02-20.56Q318.93-17.19 320.25-12.6L320.25-12.6Q320.64-11.16 320.64-9.53 320.64-7.91 320.09-6.46 319.54-5 318.59-3.87 317.64-2.73 316.38-1.9 315.12-1.07 313.71-0.54L313.71-0.54Q307.43 1.9 300.52-0.93L300.52-0.93Q298.01-1.98 296.08-3.49L296.08-3.49 297.1-10.5 299.18-10.5Q299.18-5.59 302.28-3.66L302.28-3.66Q304.4-2.34 307.85-2.34ZM344.66-37.38L344.66-37.38Q349.62-37.38 353.74-36.13L353.74-36.13Q355.55-35.57 356.77-34.89L356.77-34.89 356.21-28.37 354.6-28.37Q354.6-31.08 351.93-32.71L351.93-32.71Q349.1-34.45 344.15-34.45L344.15-34.45Q337.73-34.45 333.53-30.13L333.53-30.13Q329.35-25.78 329.35-19.26L329.35-19.26Q329.35-12.35 333.21-7.54L333.21-7.54Q335.82-4.3 339.83-3.03L339.83-3.03Q341.88-2.37 344.49-2.37 347.1-2.37 349.13-2.67 351.15-2.98 352.45-3.66L352.45-3.66Q354.99-5 354.99-8.2L354.99-8.2 356.6-8.2 356.94-1.9Q352.69 0.56 344.42 0.56L344.42 0.56Q335.28 0.56 329.84-4.74L329.84-4.74Q324.64-9.79 324.64-17.77L324.64-17.77Q324.64-26.61 330.79-32.18L330.79-32.18Q336.48-37.38 344.66-37.38ZM367.01-4.74Q364.63-7.2 363.39-10.56 362.16-13.92 362.16-17.35 362.16-20.78 362.85-23.41 363.53-26.05 364.74-28.22 365.95-30.4 367.64-32.1 369.34-33.81 371.37-34.99L371.37-34.99Q375.49-37.38 380.2-37.38 384.92-37.38 388.38-36 391.85-34.62 394.22-32.2L394.22-32.2Q399.03-27.29 399.03-19.31L399.03-19.31Q399.03-10.42 393.63-4.81L393.63-4.81Q391.14-2.22 387.83-0.83 384.53 0.56 380.44 0.56 376.35 0.56 372.87-0.85 369.39-2.27 367.01-4.74ZM370.58-29.93Q368.8-27.86 367.84-25.1 366.87-22.34 366.87-19.7 366.87-17.07 367.26-14.97 367.66-12.87 368.42-11 369.19-9.13 370.35-7.54 371.51-5.96 373.05-4.81L373.05-4.81Q376.32-2.37 380.77-2.37L380.77-2.37Q386.84-2.37 390.65-6.49L390.65-6.49Q394.39-10.55 394.39-17.07L394.39-17.07Q394.39-24.24 391.14-29L391.14-29Q387.43-34.45 380.3-34.45L380.3-34.45Q374.42-34.45 370.58-29.93L370.58-29.93Z" fill="#5dd8a1" data-fill-palette-color="accent"></path></g></svg></g></svg></g></svg></g></svg></g></svg></g></svg><rect width="395.52" height="37.55499335232668" fill="none" stroke="none" visibility="hidden"></rect></g></svg></g></svg>